<svg width="33" height="32" viewBox="0 0 33 32" fill="none" xmlns="http://www.w3.org/2000/svg">
<g clip-path="url(#clip0_102_4)">
<rect x="0.5" width="32" height="32" rx="7.50733" fill="#071408"/>
<path d="M8.94266 13.0009L8.92508 18.6292C8.92498 18.6625 -0.27857 27.8848 -0.302094 27.9086L4.46681 32.6776C4.4906 32.6541 13.713 23.4506 13.7463 23.4505L19.3746 23.4329C19.4082 23.4328 19.4404 23.4193 19.4643 23.3955L23.7426 19.1172C23.7664 19.0933 23.7799 19.0611 23.78 19.0275L23.7992 12.8862C23.7993 12.8566 23.789 12.8279 23.7701 12.8052L23.5719 12.5671C23.5245 12.5102 23.4383 12.5064 23.3854 12.5588L19.7724 16.1414C19.7483 16.1653 19.7347 16.1977 19.7346 16.2315L19.7312 17.3292C19.7311 17.3632 19.7173 17.3957 19.6931 17.4196L17.7666 19.3157C17.7428 19.3391 17.7108 19.3523 17.6776 19.3524L15.0276 19.3607C14.9933 19.3608 14.9605 19.347 14.9367 19.3224L14.0102 18.3653L13.0531 17.4388C13.0286 17.415 13.0147 17.3822 13.0148 17.3479L13.0231 14.6979C13.0232 14.6646 13.0364 14.6327 13.0598 14.6089L14.9559 12.6824C14.9798 12.6581 15.0124 12.6444 15.0463 12.6443L16.144 12.6409C16.1778 12.6408 16.2102 12.6272 16.2341 12.6031L19.8167 8.99008C19.8692 8.93716 19.8653 8.85095 19.8084 8.80357L19.5703 8.60539C19.5476 8.58649 19.5189 8.57619 19.4893 8.57628L13.348 8.5955C13.3144 8.59561 13.2822 8.60905 13.2583 8.63289L8.98004 12.9112C8.95621 12.935 8.94276 12.9673 8.94266 13.0009Z" fill="#00C614"/>
</g>
<defs>
<clipPath id="clip0_102_4">
<rect x="0.5" width="32" height="32" rx="7.50733" fill="white"/>
</clipPath>
</defs>
</svg>
