<svg width="278" height="269" viewBox="0 0 278 269" fill="none" xmlns="http://www.w3.org/2000/svg">
<path d="M99.9667 58.0407L99.7794 118.017C99.7783 118.372 1.70301 216.648 1.45232 216.901L52.271 267.721C52.3321 267.661 58.0854 261.919 66.789 253.239C94.203 225.897 150.886 169.395 151.156 169.394L159.964 169.366L211.132 169.207C211.49 169.205 211.834 169.062 212.088 168.808L221.663 159.233L257.678 123.217C257.932 122.963 258.076 122.62 258.077 122.262L258.278 57.8007L258.282 56.8187C258.283 56.5029 258.173 56.1974 257.971 55.9554L255.859 53.4182C255.536 53.0296 255.043 52.8733 254.582 52.9581L253.872 53.33L215.371 91.507C215.114 91.7613 214.969 92.1069 214.968 92.4669L214.932 104.164C214.931 104.526 214.784 104.873 214.526 105.128L203.733 115.75L193.996 125.333C193.743 125.583 193.403 125.723 193.048 125.724L164.809 125.812C164.444 125.813 164.094 125.666 163.841 125.404L153.968 115.205L143.769 105.332C143.507 105.078 143.36 104.729 143.361 104.363L143.449 76.1242C143.45 75.7699 143.591 75.4293 143.84 75.176L164.045 54.6468C164.3 54.3881 164.647 54.2418 165.009 54.2407L176.706 54.2041L215.843 15.3005C216.402 14.7366 216.362 13.8179 215.755 13.313L213.218 11.2011C212.976 10.9997 212.67 10.8899 212.354 10.8909L155.381 11.0693L146.912 11.0958C146.83 11.096 146.749 11.1037 146.67 11.1183L145.956 11.4942L100.365 57.0849C100.111 57.3388 99.9678 57.6827 99.9667 58.0407Z" fill="#DBF301"/>
<path d="M172.968 105.205L162.769 95.3317L143.769 105.332L153.968 115.205L163.841 125.404L182.841 115.404L172.968 105.205Z" fill="white"/>
<path d="M162.361 94.3631L162.449 66.1242C162.45 65.7699 162.591 65.4293 162.84 65.176L176.706 54.2041L165.009 54.2407C164.647 54.2418 164.3 54.3881 164.045 54.6468L143.84 75.176C143.591 75.4293 143.45 75.7699 143.449 76.1242L143.361 104.363L162.361 94.3631Z" fill="black"/>
<path d="M164.809 125.812L193.048 125.724C193.403 125.723 193.743 125.583 193.996 125.333L203.733 115.75L183.809 115.812L164.809 125.812Z" fill="black"/>
<path d="M194 45.5L234.843 5.30045L215.843 15.3005L176.706 54.2041L194 45.5Z" fill="white"/>
<path d="M234.843 5.30045C235.402 4.73659 235.362 3.8179 234.755 3.31303L215.755 13.313C216.362 13.8179 216.402 14.7366 215.843 15.3005L234.843 5.30045Z" fill="black"/>
<path d="M234.755 3.31303L232.218 1.20113L213.218 11.2011L215.755 13.313L234.755 3.31303Z" fill="white"/>
<path d="M231.354 0.890919L165.912 1.09577C165.554 1.09689 165.21 1.2402 164.956 1.49417L146.67 11.1183C146.749 11.1037 146.83 11.096 146.912 11.0958L155.381 11.0693L212.354 10.8909L231.354 0.890919Z" fill="black"/>
<path d="M276.971 45.9554L274.859 43.4182C274.355 42.8117 273.436 42.7709 272.872 43.33L272.783 43.4182L254.582 52.9581C255.043 52.8733 255.536 53.0296 255.859 53.4182L257.971 55.9554C258.173 56.1974 258.283 56.5029 258.282 56.8187L277.282 46.8187C277.283 46.5029 277.173 46.1974 276.971 45.9554Z" fill="black"/>
<path d="M231.088 158.808L276.678 113.217C276.932 112.963 277.076 112.62 277.077 112.262L277.282 46.8187L258.282 56.8187L258.278 57.8007L258.077 122.262C258.076 122.62 257.932 122.963 257.678 123.217L221.663 159.233L212.088 168.808L230.373 159.184L231.088 158.808Z" fill="white"/>
<path d="M52.271 267.721L71.271 257.721C71.4743 257.52 134.751 194.345 159.964 169.366L151.156 169.394C150.886 169.395 94.203 225.897 66.789 253.239C58.0854 261.919 52.3321 267.661 52.271 267.721Z" fill="black"/>
<path d="M231.354 0.890919L165.912 1.09577C165.554 1.09689 165.21 1.2402 164.956 1.49417L146.67 11.1183M231.354 0.890919C231.67 0.889932 231.976 0.999697 232.218 1.20113M231.354 0.890919L212.354 10.8909M232.218 1.20113L234.755 3.31303M232.218 1.20113L213.218 11.2011M234.755 3.31303C235.362 3.8179 235.402 4.73659 234.843 5.30045M234.755 3.31303L215.755 13.313M234.843 5.30045L194 45.5L176.706 54.2041M234.843 5.30045L215.843 15.3005M162.361 94.3631L162.449 66.1242C162.45 65.7699 162.591 65.4293 162.84 65.176L176.706 54.2041M162.361 94.3631C162.36 94.7287 162.507 95.0782 162.769 95.3317M162.361 94.3631L143.361 104.363M162.769 95.3317L172.968 105.205L182.841 115.404M162.769 95.3317L143.769 105.332M230.132 159.207C230.213 159.206 230.294 159.199 230.373 159.184M231.088 158.808L276.678 113.217C276.932 112.963 277.076 112.62 277.077 112.262L277.282 46.8187M231.088 158.808L230.373 159.184M231.088 158.808C230.891 159.004 230.642 159.134 230.373 159.184M277.282 46.8187C277.283 46.5029 277.173 46.1974 276.971 45.9554L274.859 43.4182C274.355 42.8117 273.436 42.7709 272.872 43.33L272.783 43.4182L254.582 52.9581M277.282 46.8187L258.282 56.8187M183.809 115.812C183.444 115.813 183.094 115.666 182.841 115.404M183.809 115.812L203.733 115.75M183.809 115.812L164.809 125.812M182.841 115.404L163.841 125.404M145.956 11.4942L100.365 57.0849C100.111 57.3388 99.9678 57.6827 99.9667 58.0407L99.7794 118.017C99.7783 118.372 1.70301 216.648 1.45232 216.901L52.271 267.721M145.956 11.4942L146.67 11.1183M145.956 11.4942C146.152 11.2981 146.401 11.168 146.67 11.1183M212.354 10.8909C212.67 10.8899 212.976 10.9997 213.218 11.2011M212.354 10.8909L155.381 11.0693L146.912 11.0958C146.83 11.096 146.749 11.1037 146.67 11.1183M213.218 11.2011L215.755 13.313M215.755 13.313C216.362 13.8179 216.402 14.7366 215.843 15.3005M215.843 15.3005L176.706 54.2041M176.706 54.2041L165.009 54.2407C164.647 54.2418 164.3 54.3881 164.045 54.6468L143.84 75.176C143.591 75.4293 143.45 75.7699 143.449 76.1242L143.361 104.363M143.361 104.363C143.36 104.729 143.507 105.078 143.769 105.332M143.769 105.332L153.968 115.205L163.841 125.404M212.088 168.808C211.834 169.062 211.49 169.205 211.132 169.207L159.964 169.366M212.088 168.808L221.663 159.233L257.678 123.217C257.932 122.963 258.076 122.62 258.077 122.262L258.278 57.8007L258.282 56.8187M212.088 168.808L230.373 159.184M258.282 56.8187C258.283 56.5029 258.173 56.1974 257.971 55.9554L255.859 53.4182C255.536 53.0296 255.043 52.8733 254.582 52.9581M253.872 53.33L215.371 91.507C215.114 91.7613 214.969 92.1069 214.968 92.4669L214.932 104.164C214.931 104.526 214.784 104.873 214.526 105.128L203.733 115.75M253.872 53.33L254.582 52.9581M253.872 53.33C254.075 53.1291 254.323 53.0057 254.582 52.9581M164.809 125.812L193.048 125.724C193.403 125.723 193.743 125.583 193.996 125.333L203.733 115.75M164.809 125.812C164.444 125.813 164.094 125.666 163.841 125.404M52.271 267.721L71.271 257.721C71.4743 257.52 134.751 194.345 159.964 169.366M52.271 267.721C52.3321 267.661 58.0854 261.919 66.789 253.239C94.203 225.897 150.886 169.395 151.156 169.394L159.964 169.366" stroke="black"/>
</svg>
