<svg width="265" height="38" viewBox="0 0 265 38" fill="none" xmlns="http://www.w3.org/2000/svg">
<path d="M222.729 8.06527C221.432 8.06527 220.941 8.53615 220.941 9.85341V27.1388H224.517V9.85341C224.517 8.53615 224.027 8.06527 222.729 8.06527ZM220.345 4.78701C220.345 5.41933 220.596 6.02576 221.043 6.47288C221.49 6.92001 222.097 7.1712 222.729 7.1712C223.361 7.1712 223.968 6.92001 224.415 6.47288C224.862 6.02576 225.113 5.41933 225.113 4.78701M222.431 0.614674C222.252 0.614674 222.133 0.739844 222.133 0.912698V2.70084H221.537V1.21072C221.537 1.21072 220.196 1.72332 220.196 3.4459C220.196 3.4459 219.749 3.52935 219.749 4.19096H225.709C225.679 3.52935 225.262 3.4459 225.262 3.4459C225.262 1.72332 223.921 1.21072 223.921 1.21072V2.70084H223.325V0.912698C223.325 0.739844 223.212 0.614674 223.027 0.614674H222.431Z" fill="#07241A"/>
<path d="M6.83384 10.4309L6.80078 21.0153C6.80059 21.0781 0.0442396 28.2358 0 28.2805L8.96834 37.249C9.01307 37.2049 15.8048 30.0824 15.8675 30.0822L26.4519 30.0492C26.5151 30.049 26.5758 30.0237 26.6206 29.9789L34.6664 21.9331C34.7112 21.8883 34.7365 21.8276 34.7367 21.7644L34.7728 10.2153C34.773 10.1595 34.7536 10.1056 34.7181 10.0629L34.3454 9.61514C34.2563 9.5081 34.0941 9.50091 33.9946 9.59958L27.2 16.3369C27.1548 16.3818 27.1292 16.4428 27.129 16.5064L27.1226 18.5707C27.1224 18.6345 27.0965 18.6958 27.0509 18.7407L23.4279 22.3065C23.3832 22.3505 23.3231 22.3753 23.2606 22.3755L18.2771 22.3911C18.2126 22.3913 18.1509 22.3653 18.1061 22.3191L16.3638 20.5191L14.5639 18.7767C14.5177 18.732 14.4917 18.6703 14.4919 18.6058L14.5075 13.6222C14.5077 13.5597 14.5325 13.4996 14.5765 13.4549L18.1423 9.83195C18.1872 9.78631 18.2485 9.76049 18.3123 9.76029L20.3766 9.75384C20.4402 9.75364 20.5012 9.72807 20.546 9.68281L27.2834 2.88822C27.3821 2.78871 27.3749 2.62658 27.2679 2.53749L26.8201 2.16478C26.7774 2.12923 26.7235 2.10986 26.6677 2.11004L15.1186 2.14619C15.0554 2.14639 14.9947 2.17168 14.9499 2.2165L6.90414 10.2622C6.85932 10.307 6.83403 10.3677 6.83384 10.4309Z" fill="#07241A"/>
<path d="M47.3868 8.40055C47.7965 8.40055 48.3864 8.47505 49.1563 8.62406V12.517C48.436 12.3432 47.809 12.2562 47.275 12.2562C45.8718 12.2562 44.6983 12.7219 43.7546 13.6532C42.8233 14.5845 42.3576 15.8573 42.3576 17.4716V27.4368H38.1294V8.7917H42.3576V11.269C43.5373 9.35671 45.2137 8.40055 47.3868 8.40055Z" fill="#07241A"/>
<path d="M65.3241 8.7917H69.6082V27.4368H65.3241V24.1586C64.6411 25.3382 63.7408 26.2447 62.6232 26.878C61.5056 27.4989 60.208 27.8093 58.7303 27.8093C57.1036 27.8093 55.6072 27.3809 54.2413 26.5241C52.8754 25.6549 51.795 24.4752 51.0003 22.9851C50.2056 21.4825 49.8082 19.8496 49.8082 18.0863C49.8082 16.323 50.2056 14.6963 51.0003 13.2062C51.795 11.7161 52.8754 10.5426 54.2413 9.68577C55.6072 8.82895 57.1036 8.40055 58.7303 8.40055C60.208 8.40055 61.5056 8.7172 62.6232 9.3505C63.7408 9.9838 64.6411 10.8903 65.3241 12.07V8.7917ZM59.643 23.7674C61.2573 23.7674 62.6046 23.2272 63.6849 22.1469C64.7777 21.0541 65.3241 19.7006 65.3241 18.0863C65.3241 16.4844 64.7777 15.1433 63.6849 14.063C62.6046 12.9827 61.2573 12.4425 59.643 12.4425C58.0659 12.4425 56.731 12.9951 55.6383 14.1003C54.5455 15.193 53.9992 16.5217 53.9992 18.0863C53.9992 19.6758 54.5455 21.0231 55.6383 22.1283C56.731 23.221 58.0659 23.7674 59.643 23.7674Z" fill="#07241A"/>
<path d="M84.0996 4.02332C83.0068 4.02332 82.15 4.29651 81.5291 4.84289C80.9082 5.37685 80.5978 6.20883 80.5978 7.33884V8.7917H85.4407V12.8336H80.5978V27.4368H76.3323V12.8336H72.7747V8.7917H76.3323V7.26433C76.3323 4.94223 76.947 3.15409 78.1763 1.8999C79.4181 0.633301 81.0883 0 83.1869 0C84.0188 0 84.7701 0.0807148 85.4407 0.242144V4.17233C85.1054 4.07299 84.6584 4.02332 84.0996 4.02332Z" fill="#07241A"/>
<path d="M99.5223 12.8336H94.6235V20.3401C94.6235 21.4701 94.934 22.3083 95.5548 22.8547C96.1881 23.3887 97.0512 23.6556 98.1439 23.6556C98.6779 23.6556 99.1373 23.606 99.5223 23.5066V27.4368C98.8641 27.5858 98.1005 27.6603 97.2312 27.6603C95.1326 27.6603 93.4625 27.0332 92.2207 25.7791C90.9789 24.5249 90.3581 22.7367 90.3581 20.4146V12.8336H86.819V8.7917H90.3581V3.78118H94.6235V8.7917H99.5223V12.8336Z" fill="#07241A"/>
<path d="M109.823 27.8093C107.513 27.8093 105.619 27.2443 104.142 26.1143C102.664 24.9843 101.832 23.4259 101.646 21.4391H105.725C105.799 22.2462 106.197 22.9044 106.917 23.4135C107.637 23.9102 108.525 24.1586 109.581 24.1586C110.599 24.1586 111.4 23.9599 111.983 23.5625C112.567 23.1651 112.859 22.6374 112.859 21.9793C112.859 21.4453 112.66 21.0107 112.263 20.6754C111.865 20.3277 111.35 20.0731 110.717 19.9117C110.084 19.7379 109.382 19.5826 108.612 19.4461C107.855 19.3095 107.091 19.1356 106.321 18.9245C105.551 18.7134 104.849 18.4402 104.216 18.1049C103.583 17.7572 103.068 17.2481 102.67 16.5776C102.273 15.8946 102.074 15.075 102.074 14.1189C102.074 12.4673 102.714 11.1014 103.993 10.0211C105.284 8.94071 106.998 8.40055 109.134 8.40055C111.145 8.40055 112.865 8.91588 114.293 9.94654C115.721 10.9772 116.541 12.4052 116.752 14.2306H112.486C112.387 13.5725 112.027 13.0323 111.406 12.6101C110.785 12.1755 110.003 11.9582 109.059 11.9582C108.215 11.9582 107.525 12.1321 106.992 12.4797C106.458 12.815 106.191 13.2745 106.191 13.8581C106.191 14.3051 106.346 14.6777 106.656 14.9757C106.967 15.2737 107.376 15.491 107.886 15.6276C108.395 15.7518 108.972 15.8822 109.618 16.0188C110.264 16.1554 110.928 16.2796 111.611 16.3913C112.294 16.5031 112.958 16.6955 113.604 16.9687C114.25 17.2295 114.827 17.5462 115.336 17.9187C115.845 18.2912 116.255 18.8252 116.566 19.5206C116.876 20.2035 117.031 21.0107 117.031 21.942C117.031 23.6184 116.342 25.0154 114.964 26.133C113.598 27.2506 111.884 27.8093 109.823 27.8093Z" fill="#07241A"/>
<path d="M142.158 8.40055C144.431 8.40055 146.269 9.09593 147.672 10.4867C149.087 11.8651 149.795 13.7153 149.795 16.0374V27.4368H145.474V16.9874C145.474 15.5842 145.114 14.4852 144.393 13.6905C143.673 12.8833 142.686 12.4797 141.432 12.4797C140.277 12.4797 139.296 12.8585 138.489 13.616C137.682 14.3734 137.278 15.4972 137.278 16.9874V27.4368H133.013V16.9874C133.013 15.5842 132.646 14.4852 131.914 13.6905C131.181 12.8833 130.181 12.4797 128.915 12.4797C127.772 12.4797 126.791 12.8585 125.972 13.616C125.165 14.3734 124.761 15.4972 124.761 16.9874V27.4368H120.533V8.7917H124.761V11.418C125.394 10.3625 126.22 9.59885 127.239 9.12698C128.269 8.64269 129.337 8.40055 130.442 8.40055C133.187 8.40055 135.111 9.4933 136.216 11.6788C136.738 10.673 137.539 9.87825 138.619 9.29462C139.7 8.69857 140.879 8.40055 142.158 8.40055Z" fill="#07241A"/>
<path d="M172.017 17.7138C172.017 18.5706 171.979 19.1667 171.905 19.5019H157.6C157.873 20.8927 158.481 21.9855 159.425 22.7802C160.369 23.5749 161.58 23.9723 163.057 23.9723C164.2 23.9723 165.181 23.7239 166 23.2272C166.832 22.7305 167.341 22.0848 167.528 21.2901H171.793C171.445 23.2521 170.464 24.8291 168.85 26.0212C167.236 27.2133 165.28 27.8093 162.983 27.8093C161.182 27.8093 159.543 27.3871 158.065 26.5427C156.588 25.6859 155.42 24.5062 154.564 23.0037C153.719 21.5012 153.297 19.8372 153.297 18.0118C153.297 16.2361 153.719 14.6156 154.564 13.1503C155.42 11.6726 156.581 10.5115 158.047 9.66715C159.524 8.82275 161.145 8.40055 162.908 8.40055C164.572 8.40055 166.093 8.7917 167.472 9.57401C168.863 10.3563 169.968 11.4677 170.787 12.9082C171.607 14.3362 172.017 15.9381 172.017 17.7138ZM157.711 15.8698H167.397C167.211 14.7894 166.689 13.9202 165.833 13.2621C164.988 12.5915 163.933 12.2562 162.666 12.2562C161.412 12.2562 160.35 12.5729 159.481 13.2062C158.612 13.8395 158.022 14.7273 157.711 15.8698Z" fill="#07241A"/>
<path d="M185.428 8.40055C187.812 8.40055 189.699 9.15181 191.09 10.6544C192.481 12.1569 193.176 14.2058 193.176 16.8011V27.4368H188.911V17.3226C188.911 15.8574 188.495 14.6839 187.663 13.8022C186.843 12.9206 185.757 12.4797 184.403 12.4797C183 12.4797 181.876 12.9206 181.032 13.8022C180.2 14.6839 179.784 15.8574 179.784 17.3226V27.4368H175.556V8.7917H179.784V11.7161C180.38 10.6606 181.162 9.8472 182.131 9.27599C183.099 8.69236 184.198 8.40055 185.428 8.40055Z" fill="#07241A"/>
<path d="M193.772 0.726433H198.541L205.712 20.3029L212.883 0.726433H217.614L207.537 27.4368H203.831L193.772 0.726433Z" fill="#07241A"/>
<path d="M233.279 0.726433V27.4368H229.051V0.726433H233.279Z" fill="#07241A"/>
<path d="M241.996 0.726433V27.4368H237.768V0.726433H241.996Z" fill="#07241A"/>
<path d="M260.716 8.7917H265V27.4368H260.716V24.1586C260.033 25.3382 259.133 26.2447 258.015 26.878C256.897 27.4989 255.6 27.8093 254.122 27.8093C252.495 27.8093 250.999 27.3809 249.633 26.5241C248.267 25.6549 247.187 24.4752 246.392 22.9851C245.597 21.4825 245.2 19.8496 245.2 18.0863C245.2 16.323 245.597 14.6963 246.392 13.2062C247.187 11.7161 248.267 10.5426 249.633 9.68577C250.999 8.82895 252.495 8.40055 254.122 8.40055C255.6 8.40055 256.897 8.7172 258.015 9.3505C259.133 9.9838 260.033 10.8903 260.716 12.07V8.7917ZM255.035 23.7674C256.649 23.7674 257.996 23.2272 259.077 22.1469C260.17 21.0541 260.716 19.7006 260.716 18.0863C260.716 16.4844 260.17 15.1433 259.077 14.063C257.996 12.9827 256.649 12.4425 255.035 12.4425C253.458 12.4425 252.123 12.9951 251.03 14.1003C249.937 15.193 249.391 16.5217 249.391 18.0863C249.391 19.6758 249.937 21.0231 251.03 22.1283C252.123 23.221 253.458 23.7674 255.035 23.7674Z" fill="#07241A"/>
</svg>
