<svg width="221" height="37" viewBox="0 0 221 37" fill="none" xmlns="http://www.w3.org/2000/svg">
<g clip-path="url(#clip0_199_7428)">
<path d="M9.80472 11.2469L9.77857 19.6222C9.77841 19.6718 4.43227 25.3356 4.39726 25.371L11.4937 32.4675C11.5291 32.4326 16.9033 26.7967 16.9529 26.7966L25.3281 26.7704C25.3781 26.7703 25.4261 26.7503 25.4616 26.7148L31.828 20.3484C31.8634 20.3129 31.8835 20.2649 31.8836 20.2149L31.9122 11.0763C31.9124 11.0322 31.897 10.9895 31.8689 10.9557L31.574 10.6014C31.5035 10.5167 31.3752 10.511 31.2965 10.5891L25.9201 15.9203C25.8842 15.9558 25.864 16.004 25.8638 16.0543L25.8587 17.6878C25.8586 17.7383 25.8382 17.7868 25.802 17.8223L22.9353 20.6438C22.8999 20.6787 22.8523 20.6983 22.8029 20.6984L18.8595 20.7107C18.8085 20.7109 18.7597 20.6903 18.7243 20.6538L17.3456 19.2295L15.9214 17.8508C15.8848 17.8154 15.8643 17.7666 15.8644 17.7155L15.8767 13.7722C15.8769 13.7227 15.8965 13.6751 15.9313 13.6398L18.7528 10.773C18.7884 10.7369 18.8369 10.7164 18.8874 10.7163L20.5208 10.7112C20.5711 10.711 20.6194 10.6908 20.6549 10.655L25.986 5.27857C26.0641 5.19983 26.0584 5.07154 25.9737 5.00104L25.6194 4.70613C25.5856 4.678 25.543 4.66267 25.4989 4.66281L16.3602 4.69142C16.3102 4.69157 16.2622 4.71159 16.2268 4.74705L9.86036 11.1135C9.82489 11.1489 9.80488 11.1969 9.80472 11.2469Z" fill="url(#paint0_linear_199_7428)"/>
</g>
<g clip-path="url(#clip1_199_7428)">
<path d="M184.428 16.0873C183.401 16.0873 183.013 16.4599 183.013 17.5022V31.1797H185.843V17.5022C185.843 16.4599 185.455 16.0873 184.428 16.0873ZM182.542 13.4932C182.542 13.9936 182.74 14.4734 183.094 14.8272C183.448 15.181 183.928 15.3798 184.428 15.3798C184.928 15.3798 185.408 15.181 185.762 14.8272C186.116 14.4734 186.315 13.9936 186.315 13.4932M184.192 10.1918C184.051 10.1918 183.957 10.2908 183.957 10.4276V11.8425H183.485V10.6634C183.485 10.6634 182.424 11.069 182.424 12.4321C182.424 12.4321 182.07 12.4981 182.07 13.0216H186.786C186.763 12.4981 186.433 12.4321 186.433 12.4321C186.433 11.069 185.371 10.6634 185.371 10.6634V11.8425H184.9V10.4276C184.9 10.2908 184.81 10.1918 184.664 10.1918H184.192Z" fill="url(#paint1_linear_199_7428)"/>
<path d="M45.6836 16.2246C46.0079 16.2246 46.4746 16.2835 47.0838 16.4014V19.4818C46.5139 19.3443 46.0177 19.2755 45.5952 19.2755C44.4849 19.2755 43.5563 19.6439 42.8096 20.3809C42.0726 21.1178 41.7041 22.125 41.7041 23.4023V31.2875H38.3585V16.5341H41.7041V18.4943C42.6376 16.9811 43.9641 16.2246 45.6836 16.2246ZM59.877 16.5341H63.2669V31.2875H59.877V28.6935C59.3366 29.627 58.6242 30.3443 57.7399 30.8454C56.8556 31.3367 55.8288 31.5823 54.6595 31.5823C53.3723 31.5823 52.1883 31.2433 51.1075 30.5653C50.0266 29.8775 49.1718 28.9441 48.5429 27.765C47.9141 26.5761 47.5996 25.284 47.5996 23.8887C47.5996 22.4934 47.9141 21.2062 48.5429 20.0272C49.1718 18.8481 50.0266 17.9195 51.1075 17.2415C52.1883 16.5635 53.3723 16.2246 54.6595 16.2246C55.8288 16.2246 56.8556 16.4751 57.7399 16.9762C58.6242 17.4774 59.3366 18.1946 59.877 19.1281V16.5341ZM55.3817 28.384C56.659 28.384 57.7251 27.9566 58.58 27.1017C59.4447 26.2371 59.877 25.1661 59.877 23.8887C59.877 22.6212 59.4447 21.56 58.58 20.7051C57.7251 19.8503 56.659 19.4229 55.3817 19.4229C54.1338 19.4229 53.0775 19.8601 52.2129 20.7346C51.3482 21.5993 50.9159 22.6506 50.9159 23.8887C50.9159 25.1464 51.3482 26.2125 52.2129 27.087C53.0775 27.9517 54.1338 28.384 55.3817 28.384ZM74.7336 12.761C73.869 12.761 73.191 12.9771 72.6997 13.4095C72.2084 13.832 71.9628 14.4903 71.9628 15.3845V16.5341H75.7948V19.7324H71.9628V31.2875H68.5876V19.7324H65.7725V16.5341H68.5876V15.3255C68.5876 13.4881 69.074 12.0732 70.0467 11.0807C71.0293 10.0785 72.3509 9.57739 74.0114 9.57739C74.6698 9.57739 75.2642 9.64126 75.7948 9.769V12.8789C75.5295 12.8003 75.1758 12.761 74.7336 12.761ZM86.9373 19.7324H83.061V25.6721C83.061 26.5662 83.3067 27.2295 83.7979 27.6618C84.2991 28.0843 84.982 28.2956 85.8466 28.2956C86.2691 28.2956 86.6327 28.2563 86.9373 28.1777V31.2875C86.4165 31.4054 85.8122 31.4644 85.1244 31.4644C83.4639 31.4644 82.1423 30.9682 81.1597 29.9758C80.1771 28.9834 79.6858 27.5685 79.6858 25.731V19.7324H76.8855V16.5341H79.6858V12.5694H83.061V16.5341H86.9373V19.7324ZM95.0878 31.5823C93.2602 31.5823 91.7618 31.1352 90.5925 30.2411C89.4232 29.3469 88.7649 28.1138 88.6175 26.5417H91.8453C91.9042 27.1803 92.2187 27.7011 92.7886 28.104C93.3585 28.497 94.061 28.6935 94.8962 28.6935C95.7019 28.6935 96.3357 28.5363 96.7975 28.2219C97.2593 27.9075 97.4902 27.4899 97.4902 26.9691C97.4902 26.5466 97.333 26.2027 97.0186 25.9374C96.7042 25.6623 96.2964 25.4608 95.7953 25.3331C95.2942 25.1955 94.739 25.0727 94.1298 24.9646C93.5304 24.8565 92.9261 24.719 92.3169 24.5519C91.7077 24.3849 91.1526 24.1687 90.6515 23.9034C90.1503 23.6283 89.7426 23.2255 89.4281 22.6949C89.1137 22.1544 88.9565 21.5059 88.9565 20.7493C88.9565 19.4425 89.4625 18.3617 90.4746 17.5068C91.4965 16.652 92.8524 16.2246 94.5425 16.2246C96.1343 16.2246 97.4951 16.6323 98.6251 17.4479C99.7551 18.2634 100.404 19.3934 100.571 20.8378H97.1954C97.1168 20.317 96.8319 19.8896 96.3406 19.5555C95.8493 19.2116 95.2303 19.0397 94.4835 19.0397C93.8154 19.0397 93.27 19.1772 92.8475 19.4523C92.425 19.7176 92.2138 20.0812 92.2138 20.543C92.2138 20.8967 92.3366 21.1915 92.5822 21.4273C92.8279 21.6631 93.1521 21.8351 93.555 21.9432C93.9578 22.0414 94.4147 22.1446 94.9257 22.2527C95.4366 22.3608 95.9623 22.459 96.5027 22.5475C97.0431 22.6359 97.5688 22.7882 98.0798 23.0044C98.5907 23.2107 99.0476 23.4613 99.4505 23.756C99.8533 24.0508 100.178 24.4733 100.423 25.0236C100.669 25.564 100.792 26.2027 100.792 26.9396C100.792 28.2661 100.246 29.3715 99.1557 30.2558C98.0749 31.1401 96.7189 31.5823 95.0878 31.5823ZM120.674 16.2246C122.472 16.2246 123.927 16.7748 125.037 17.8753C126.157 18.966 126.717 20.43 126.717 22.2674V31.2875H123.298V23.0191C123.298 21.9088 123.013 21.0392 122.443 20.4104C121.873 19.7717 121.092 19.4523 120.099 19.4523C119.186 19.4523 118.409 19.752 117.771 20.3514C117.132 20.9508 116.813 21.84 116.813 23.0191V31.2875H113.438V23.0191C113.438 21.9088 113.148 21.0392 112.568 20.4104C111.988 19.7717 111.197 19.4523 110.195 19.4523C109.291 19.4523 108.515 19.752 107.866 20.3514C107.228 20.9508 106.908 21.84 106.908 23.0191V31.2875H103.563V16.5341H106.908V18.6122C107.409 17.777 108.063 17.1728 108.869 16.7994C109.684 16.4162 110.529 16.2246 111.404 16.2246C113.575 16.2246 115.098 17.0892 115.973 18.8186C116.385 18.0227 117.019 17.3938 117.874 16.932C118.729 16.4604 119.662 16.2246 120.674 16.2246ZM144.3 23.5939C144.3 24.2719 144.271 24.7435 144.212 25.0088H132.893C133.109 26.1093 133.59 26.974 134.337 27.6029C135.084 28.2317 136.042 28.5461 137.211 28.5461C138.115 28.5461 138.891 28.3496 139.54 27.9566C140.198 27.5636 140.601 27.0526 140.748 26.4238H144.124C143.848 27.9762 143.072 29.2241 141.795 30.1674C140.517 31.1107 138.97 31.5823 137.152 31.5823C135.727 31.5823 134.43 31.2482 133.261 30.5801C132.092 29.9021 131.168 28.9686 130.49 27.7797C129.822 26.5908 129.488 25.2741 129.488 23.8297C129.488 22.4246 129.822 21.1424 130.49 19.9829C131.168 18.8137 132.087 17.8949 133.246 17.2268C134.416 16.5586 135.698 16.2246 137.093 16.2246C138.41 16.2246 139.613 16.5341 140.704 17.1531C141.805 17.7721 142.679 18.6515 143.328 19.7913C143.976 20.9213 144.3 22.1888 144.3 23.5939ZM132.981 22.1348H140.645C140.498 21.2799 140.085 20.5921 139.407 20.0714C138.739 19.5408 137.904 19.2755 136.902 19.2755C135.909 19.2755 135.069 19.526 134.381 20.0272C133.693 20.5283 133.227 21.2308 132.981 22.1348ZM154.912 16.2246C156.799 16.2246 158.292 16.819 159.393 18.0079C160.493 19.1969 161.044 20.8181 161.044 22.8717V31.2875H157.668V23.2844C157.668 22.125 157.339 21.1964 156.681 20.4988C156.032 19.8012 155.173 19.4523 154.102 19.4523C152.991 19.4523 152.102 19.8012 151.434 20.4988C150.776 21.1964 150.446 22.125 150.446 23.2844V31.2875H147.101V16.5341H150.446V18.8481C150.918 18.0129 151.537 17.3693 152.304 16.9173C153.07 16.4555 153.94 16.2246 154.912 16.2246ZM161.515 10.1522H165.288L170.963 25.6426L176.637 10.1522H180.381L172.407 31.2875H169.474L161.515 10.1522ZM192.776 10.1522V31.2875H189.43V10.1522H192.776ZM199.674 10.1522V31.2875H196.328V10.1522H199.674ZM214.486 16.5341H217.876V31.2875H214.486V28.6935C213.946 29.627 213.233 30.3443 212.349 30.8454C211.465 31.3367 210.438 31.5823 209.269 31.5823C207.982 31.5823 206.798 31.2433 205.717 30.5653C204.636 29.8775 203.781 28.9441 203.152 27.765C202.523 26.5761 202.209 25.284 202.209 23.8887C202.209 22.4934 202.523 21.2062 203.152 20.0272C203.781 18.8481 204.636 17.9195 205.717 17.2415C206.798 16.5635 207.982 16.2246 209.269 16.2246C210.438 16.2246 211.465 16.4751 212.349 16.9762C213.233 17.4774 213.946 18.1946 214.486 19.1281V16.5341ZM209.991 28.384C211.268 28.384 212.334 27.9566 213.189 27.1017C214.054 26.2371 214.486 25.1661 214.486 23.8887C214.486 22.6212 214.054 21.56 213.189 20.7051C212.334 19.8503 211.268 19.4229 209.991 19.4229C208.743 19.4229 207.687 19.8601 206.822 20.7346C205.957 21.5993 205.525 22.6506 205.525 23.8887C205.525 25.1464 205.957 26.2125 206.822 27.087C207.687 27.9517 208.743 28.384 209.991 28.384Z" fill="#07241A"/>
</g>
<defs>
<linearGradient id="paint0_linear_199_7428" x1="30.5228" y1="5.88925" x2="4.45254" y2="33.1864" gradientUnits="userSpaceOnUse">
<stop offset="0.0289798" stop-color="#00EE18"/>
<stop offset="0.380208" stop-color="#00C614"/>
<stop offset="0.953125" stop-color="#06281B"/>
</linearGradient>
<linearGradient id="paint1_linear_199_7428" x1="184.428" y1="9.48431" x2="184.822" y2="33.0597" gradientUnits="userSpaceOnUse">
<stop offset="0.0289798" stop-color="#00EE18"/>
<stop offset="0.380208" stop-color="#00C614"/>
<stop offset="1" stop-color="#06281B"/>
</linearGradient>
<clipPath id="clip0_199_7428">
<rect width="36.5751" height="36.5751" fill="white"/>
</clipPath>
<clipPath id="clip1_199_7428">
<rect width="184" height="36" fill="white" transform="translate(36.5751 0.287537)"/>
</clipPath>
</defs>
</svg>
