<svg width="328" height="46" viewBox="0 0 328 46" fill="none" xmlns="http://www.w3.org/2000/svg">
<path d="M275.055 9.96005C273.453 9.96005 272.847 10.5416 272.847 12.1683V33.5145H277.263V12.1683C277.263 10.5416 276.657 9.96005 275.055 9.96005ZM272.111 5.91162C272.111 6.6925 272.421 7.4414 272.973 7.99357C273.525 8.54573 274.274 8.85593 275.055 8.85593C275.836 8.85593 276.585 8.54573 277.137 7.99357C277.689 7.4414 277.999 6.6925 277.999 5.91162M274.687 0.75908C274.466 0.75908 274.319 0.913656 274.319 1.12712V3.33535H273.583V1.49516C273.583 1.49516 271.927 2.12818 271.927 4.25545C271.927 4.25545 271.375 4.3585 271.375 5.17555H278.735C278.699 4.3585 278.183 4.25545 278.183 4.25545C278.183 2.12818 276.527 1.49516 276.527 1.49516V3.33535H275.791V1.12712C275.791 0.913656 275.651 0.75908 275.423 0.75908H274.687Z" fill="white"/>
<path d="M8.43932 12.8815L8.3985 25.9525C8.39826 26.03 0.0546329 34.8693 0 34.9245L11.0753 46C11.1305 45.9454 19.5179 37.1497 19.5953 37.1495L32.6663 37.1086C32.7444 37.1084 32.8193 37.0772 32.8746 37.0218L42.8106 27.0859C42.8659 27.0305 42.8972 26.9556 42.8974 26.8776L42.942 12.6151C42.9423 12.5463 42.9183 12.4797 42.8744 12.427L42.4142 11.874C42.3041 11.7419 42.1039 11.733 41.981 11.8548L33.5902 20.175C33.5343 20.2304 33.5027 20.3057 33.5025 20.3842L33.4945 22.9335C33.4942 23.0124 33.4624 23.088 33.406 23.1435L28.9319 27.547C28.8767 27.6014 28.8025 27.6319 28.7253 27.6322L22.5709 27.6514C22.4913 27.6517 22.4151 27.6196 22.3598 27.5625L20.2082 25.3397L17.9855 23.1879C17.9284 23.1327 17.8963 23.0565 17.8965 22.9768L17.9158 16.8225C17.916 16.7453 17.9466 16.6711 18.0009 16.6159L22.4045 12.1418C22.4599 12.0854 22.5356 12.0535 22.6144 12.0533L25.1637 12.0453C25.2422 12.0451 25.3175 12.0135 25.373 11.9576L33.6931 3.56675C33.815 3.44387 33.8061 3.24365 33.6739 3.13362L33.121 2.67336C33.0682 2.62946 33.0017 2.60553 32.9328 2.60575L18.6704 2.65039C18.5924 2.65064 18.5174 2.68187 18.4621 2.73722L8.52614 12.6731C8.47079 12.7285 8.43956 12.8034 8.43932 12.8815Z" fill="white"/>
<path d="M58.5194 10.3741C59.0254 10.3741 59.7538 10.4661 60.7046 10.6501V15.4576C59.8152 15.2429 59.0408 15.1356 58.3814 15.1356C56.6485 15.1356 55.1994 15.7107 54.0339 16.8608C52.8838 18.0109 52.3087 19.5827 52.3087 21.5763V33.8826H47.0872V10.8571H52.3087V13.9165C53.7655 11.5549 55.8358 10.3741 58.5194 10.3741Z" fill="white"/>
<path d="M80.6707 10.8571H85.9613V33.8826H80.6707V29.8341C79.8273 31.291 78.7155 32.4104 77.3354 33.1925C75.9552 33.9592 74.3527 34.3426 72.5279 34.3426C70.519 34.3426 68.6711 33.8136 66.9843 32.7555C65.2974 31.682 63.9633 30.2252 62.9819 28.385C62.0004 26.5295 61.5097 24.5129 61.5097 22.3354C61.5097 20.1578 62.0004 18.1489 62.9819 16.3087C63.9633 14.4685 65.2974 13.0194 66.9843 11.9613C68.6711 10.9032 70.519 10.3741 72.5279 10.3741C74.3527 10.3741 75.9552 10.7651 77.3354 11.5472C78.7155 12.3293 79.8273 13.4488 80.6707 14.9056V10.8571ZM73.655 29.3511C75.6485 29.3511 77.3124 28.684 78.6465 27.3499C79.996 26.0004 80.6707 24.3289 80.6707 22.3354C80.6707 20.3571 79.996 18.701 78.6465 17.3668C77.3124 16.0327 75.6485 15.3656 73.655 15.3656C71.7074 15.3656 70.0589 16.048 68.7095 17.4128C67.36 18.7623 66.6852 20.4032 66.6852 22.3354C66.6852 24.2982 67.36 25.9621 68.7095 27.3269C70.0589 28.6764 71.7074 29.3511 73.655 29.3511Z" fill="white"/>
<path d="M103.857 4.96852C102.508 4.96852 101.45 5.30589 100.683 5.98063C99.9161 6.64003 99.5327 7.66748 99.5327 9.06296V10.8571H105.513V15.8487H99.5327V33.8826H94.2651V15.8487H89.8717V10.8571H94.2651V8.97095C94.2651 6.10331 95.0242 3.89508 96.5424 2.34625C98.0759 0.782083 100.138 0 102.73 0C103.757 0 104.685 0.0996772 105.513 0.299032V5.15254C105.099 5.02986 104.547 4.96852 103.857 4.96852Z" fill="white"/>
<path d="M122.903 15.8487H116.854V25.1187C116.854 26.5141 117.237 27.5492 118.004 28.224C118.786 28.8834 119.852 29.2131 121.201 29.2131C121.86 29.2131 122.428 29.1517 122.903 29.0291V33.8826C122.09 34.0666 121.147 34.1586 120.074 34.1586C117.482 34.1586 115.42 33.3842 113.886 31.8354C112.353 30.2865 111.586 28.0783 111.586 25.2107V15.8487H107.216V10.8571H111.586V4.66949H116.854V10.8571H122.903V15.8487Z" fill="white"/>
<path d="M135.624 34.3426C132.771 34.3426 130.433 33.6449 128.608 32.2494C126.783 30.8539 125.755 28.9294 125.525 26.4758H130.563C130.655 27.4726 131.146 28.2853 132.035 28.9141C132.925 29.5274 134.021 29.8341 135.324 29.8341C136.582 29.8341 137.571 29.5888 138.292 29.0981C139.013 28.6074 139.373 27.9556 139.373 27.1429C139.373 26.4835 139.128 25.9467 138.637 25.5327C138.146 25.1033 137.51 24.7889 136.728 24.5896C135.946 24.3749 135.079 24.1832 134.128 24.0145C133.193 23.8458 132.25 23.6312 131.299 23.3705C130.348 23.1098 129.482 22.7724 128.7 22.3584C127.918 21.929 127.281 21.3002 126.791 20.4722C126.3 19.6287 126.055 18.6166 126.055 17.4358C126.055 15.3963 126.844 13.7094 128.424 12.3753C130.019 11.0412 132.135 10.3741 134.772 10.3741C137.257 10.3741 139.381 11.0105 141.144 12.2833C142.908 13.5561 143.92 15.3196 144.18 17.5739H138.913C138.79 16.7611 138.345 16.094 137.579 15.5726C136.812 15.0359 135.846 14.7676 134.68 14.7676C133.638 14.7676 132.787 14.9822 132.127 15.4116C131.468 15.8257 131.138 16.3931 131.138 17.1138C131.138 17.6659 131.33 18.1259 131.713 18.494C132.096 18.862 132.603 19.1304 133.231 19.299C133.86 19.4524 134.573 19.6134 135.37 19.7821C136.168 19.9508 136.988 20.1041 137.832 20.2421C138.675 20.3802 139.496 20.6178 140.293 20.9552C141.09 21.2772 141.804 21.6683 142.432 22.1283C143.061 22.5884 143.567 23.2478 143.95 24.1065C144.334 24.95 144.525 25.9467 144.525 27.0969C144.525 29.1671 143.674 30.8923 141.972 32.2724C140.285 33.6525 138.169 34.3426 135.624 34.3426Z" fill="white"/>
<path d="M175.556 10.3741C178.362 10.3741 180.632 11.2329 182.364 12.9504C184.113 14.6525 184.987 16.9375 184.987 19.8051V33.8826H179.65V20.9782C179.65 19.2454 179.205 17.8882 178.316 16.9068C177.427 15.91 176.207 15.4116 174.659 15.4116C173.232 15.4116 172.021 15.8793 171.024 16.8148C170.027 17.7502 169.529 19.138 169.529 20.9782V33.8826H164.262V20.9782C164.262 19.2454 163.809 17.8882 162.904 16.9068C162 15.91 160.765 15.4116 159.201 15.4116C157.79 15.4116 156.579 15.8793 155.567 16.8148C154.57 17.7502 154.071 19.138 154.071 20.9782V33.8826H148.85V10.8571H154.071V14.1005C154.854 12.797 155.873 11.8539 157.131 11.2712C158.404 10.6731 159.722 10.3741 161.087 10.3741C164.476 10.3741 166.853 11.7236 168.218 14.4225C168.862 13.1804 169.851 12.199 171.185 11.4782C172.519 10.7421 173.976 10.3741 175.556 10.3741Z" fill="white"/>
<path d="M212.429 21.8753C212.429 22.9334 212.383 23.6695 212.291 24.0835H194.625C194.962 25.8011 195.714 27.1505 196.879 28.132C198.044 29.1134 199.54 29.6041 201.364 29.6041C202.775 29.6041 203.987 29.2974 204.999 28.684C206.026 28.0706 206.655 27.2732 206.885 26.2918H212.153C211.723 28.7147 210.512 30.6622 208.518 32.1344C206.525 33.6065 204.109 34.3426 201.272 34.3426C199.049 34.3426 197.025 33.8212 195.2 32.7785C193.375 31.7203 191.933 30.2635 190.875 28.408C189.833 26.5525 189.311 24.4976 189.311 22.2433C189.311 20.0504 189.833 18.0492 190.875 16.2397C191.933 14.4149 193.367 12.981 195.177 11.9383C197.002 10.8955 199.003 10.3741 201.18 10.3741C203.235 10.3741 205.114 10.8571 206.816 11.8232C208.534 12.7893 209.898 14.1618 210.91 15.9407C211.923 17.7042 212.429 19.6824 212.429 21.8753ZM194.763 19.5981H206.724C206.494 18.2639 205.85 17.1905 204.792 16.3777C203.749 15.5496 202.446 15.1356 200.881 15.1356C199.333 15.1356 198.021 15.5266 196.948 16.3087C195.875 17.0908 195.146 18.1873 194.763 19.5981Z" fill="white"/>
<path d="M228.99 10.3741C231.935 10.3741 234.266 11.3019 235.983 13.1574C237.701 15.0129 238.559 17.5432 238.559 20.7482V33.8826H233.292V21.3923C233.292 19.5827 232.778 18.1336 231.751 17.0448C230.739 15.956 229.397 15.4116 227.725 15.4116C225.992 15.4116 224.605 15.956 223.562 17.0448C222.534 18.1336 222.021 19.5827 222.021 21.3923V33.8826H216.799V10.8571H222.021V14.4685C222.757 13.1651 223.723 12.1606 224.919 11.4552C226.115 10.7345 227.472 10.3741 228.99 10.3741Z" fill="white"/>
<path d="M239.295 0.897095H245.184L254.04 25.0726L262.896 0.897095H268.739L256.294 33.8826H251.717L239.295 0.897095Z" fill="white"/>
<path d="M272.373 1.15012C273.032 0.490718 273.822 0.161017 274.742 0.161017C275.662 0.161017 276.452 0.490718 277.111 1.15012C277.786 1.80952 278.124 2.59161 278.124 3.49637C278.124 4.4318 277.786 5.22922 277.111 5.88862C276.452 6.54802 275.662 6.87773 274.742 6.87773C273.822 6.87773 273.032 6.54802 272.373 5.88862C271.714 5.22922 271.384 4.4318 271.384 3.49637C271.384 2.59161 271.714 1.80952 272.373 1.15012ZM272.097 10.8571H277.318V33.8826H272.097V10.8571Z" fill="white"/>
<path d="M288.084 0.897095V33.8826H282.862V0.897095H288.084Z" fill="white"/>
<path d="M298.849 0.897095V33.8826H293.627V0.897095H298.849Z" fill="white"/>
<path d="M321.966 10.8571H327.257V33.8826H321.966V29.8341C321.123 31.291 320.011 32.4104 318.631 33.1925C317.251 33.9592 315.648 34.3426 313.823 34.3426C311.814 34.3426 309.967 33.8136 308.28 32.7555C306.593 31.682 305.259 30.2252 304.277 28.385C303.296 26.5295 302.805 24.5129 302.805 22.3354C302.805 20.1578 303.296 18.1489 304.277 16.3087C305.259 14.4685 306.593 13.0194 308.28 11.9613C309.967 10.9032 311.814 10.3741 313.823 10.3741C315.648 10.3741 317.251 10.7651 318.631 11.5472C320.011 12.3293 321.123 13.4488 321.966 14.9056V10.8571ZM314.95 29.3511C316.944 29.3511 318.608 28.684 319.942 27.3499C321.291 26.0004 321.966 24.3289 321.966 22.3354C321.966 20.3571 321.291 18.701 319.942 17.3668C318.608 16.0327 316.944 15.3656 314.95 15.3656C313.003 15.3656 311.354 16.048 310.005 17.4128C308.655 18.7623 307.981 20.4032 307.981 22.3354C307.981 24.2982 308.655 25.9621 310.005 27.3269C311.354 28.6764 313.003 29.3511 314.95 29.3511Z" fill="white"/>
</svg>
